<svg width="16" height="21" viewBox="0 0 16 21" fill="none" xmlns="http://www.w3.org/2000/svg">
<path d="M10.6615 0H2.43778C1.35269 0 0.469727 0.882967 0.469727 1.96805V18.5305C0.469727 19.6156 1.35269 20.4986 2.43778 20.4986H13.5627C14.6478 20.4986 15.5308 19.6156 15.5308 18.5305V4.93777L10.6615 0ZM11.076 2.45142L13.1132 4.51714H11.076V2.45142ZM14.1046 18.5302C14.1046 18.8293 13.8614 19.0724 13.5624 19.0724H2.43778C2.1387 19.0724 1.89559 18.8293 1.89559 18.5302V1.96805C1.89559 1.66897 2.1387 1.42586 2.43778 1.42586H9.65016V5.943H14.1046V18.5302ZM4.01621 16.9222H11.9839V15.4963H4.01621V16.9222ZM4.01621 13.1579H11.9839V11.732H4.01621V13.1579ZM4.01621 9.3936H11.9839V7.96773H4.01621V9.3936Z" fill="#343434"/>
</svg>
