<svg width="18" height="22" viewBox="0 0 18 22" fill="none" xmlns="http://www.w3.org/2000/svg">
<path d="M12.0874 9.58679H12.6187V9.05554V5.86804C12.6187 3.82394 10.944 2.14929 8.8999 2.14929C6.85582 2.14929 5.18115 3.82394 5.18115 5.86804V9.05554V9.58679H5.7124H12.0874ZM13.6812 9.05554V9.58679H14.2124H15.2749C16.1551 9.58679 16.8687 10.3003 16.8687 11.1805V19.6805C16.8687 20.5608 16.1551 21.2743 15.2749 21.2743H2.5249C1.64469 21.2743 0.931152 20.5608 0.931152 19.6805V11.1805C0.931152 10.3003 1.64469 9.58679 2.5249 9.58679H3.5874H4.11865V9.05554V5.86804C4.11865 3.23714 6.269 1.08679 8.8999 1.08679C11.5308 1.08679 13.6812 3.23714 13.6812 5.86804V9.05554ZM2.5249 10.6493H1.99365V11.1805V19.6805V20.2118H2.5249H15.2749H15.8062V19.6805V11.1805V10.6493H15.2749H2.5249Z" fill="#343434" stroke="white" stroke-width="1.0625"/>
</svg>
