<svg width="20" height="20" viewBox="0 0 20 20" fill="none" xmlns="http://www.w3.org/2000/svg">
<path d="M17.037 7.40741C17.037 5.44284 16.2566 3.55874 14.8675 2.16958C13.4783 0.780421 11.5942 1.20856e-07 9.62963 1.20856e-07C7.68921 -0.000350157 5.82612 0.760722 4.44094 2.11959C3.05576 3.47845 2.25909 5.32659 2.22222 7.26667C1.63285 7.26667 1.06762 7.50079 0.650874 7.91754C0.234126 8.33429 0 8.89952 0 9.48889V12.4519C0 13.0412 0.234126 13.6065 0.650874 14.0232C1.06762 14.4399 1.63285 14.6741 2.22222 14.6741H3.7037C4.29307 14.6741 4.8583 14.4399 5.27505 14.0232C5.6918 13.6065 5.92593 13.0412 5.92593 12.4519V9.48889C5.92593 8.89952 5.6918 8.33429 5.27505 7.91754C4.8583 7.50079 4.29307 7.26667 3.7037 7.26667C3.74046 5.71953 4.38098 4.24816 5.48835 3.16709C6.59572 2.08603 8.08206 1.48105 9.62963 1.48148C11.2013 1.48148 12.7086 2.10582 13.8199 3.21714C14.9312 4.32847 15.5556 5.83575 15.5556 7.40741C14.9662 7.40741 14.401 7.64153 13.9842 8.05828C13.5675 8.47503 13.3333 9.04026 13.3333 9.62963V12.5926C13.3353 13.0824 13.4991 13.5578 13.7991 13.945C14.0992 14.3321 14.5188 14.6093 14.9926 14.7333C14.4326 15.7506 13.4967 16.5084 12.3852 16.8444C12.2072 16.4599 11.923 16.1342 11.566 15.9058C11.209 15.6774 10.7941 15.5559 10.3704 15.5556H8.88889C8.29952 15.5556 7.73429 15.7897 7.31754 16.2064C6.90079 16.6232 6.66667 17.1884 6.66667 17.7778C6.66667 18.3671 6.90079 18.9324 7.31754 19.3491C7.73429 19.7659 8.29952 20 8.88889 20H10.3704C10.8612 19.9976 11.3373 19.8328 11.7246 19.5313C12.1119 19.2298 12.3884 18.8085 12.5111 18.3333C13.4211 18.1112 14.2655 17.6765 14.9749 17.0648C15.6844 16.4532 16.2388 15.6821 16.5926 14.8148H17.037C17.6264 14.8148 18.1916 14.5807 18.6084 14.1639C19.0251 13.7472 19.2593 13.182 19.2593 12.5926V9.62963C19.2593 9.04026 19.0251 8.47503 18.6084 8.05828C18.1916 7.64153 17.6264 7.40741 17.037 7.40741ZM4.44444 9.48889V12.4519C4.44444 12.6483 4.3664 12.8367 4.22749 12.9756C4.08857 13.1146 3.90016 13.1926 3.7037 13.1926H2.22222C2.02577 13.1926 1.83736 13.1146 1.69844 12.9756C1.55952 12.8367 1.48148 12.6483 1.48148 12.4519V9.48889C1.48148 9.29243 1.55952 9.10402 1.69844 8.96511C1.83736 8.82619 2.02577 8.74815 2.22222 8.74815H3.7037C3.90016 8.74815 4.08857 8.82619 4.22749 8.96511C4.3664 9.10402 4.44444 9.29243 4.44444 9.48889ZM10.3704 18.5185H8.88889C8.69243 18.5185 8.50402 18.4405 8.36511 18.3016C8.22619 18.1626 8.14815 17.9742 8.14815 17.7778C8.14815 17.5813 8.22619 17.3929 8.36511 17.254C8.50402 17.1151 8.69243 17.037 8.88889 17.037H10.3704C10.5668 17.037 10.7552 17.1151 10.8942 17.254C11.0331 17.3929 11.1111 17.5813 11.1111 17.7778C11.1111 17.9742 11.0331 18.1626 10.8942 18.3016C10.7552 18.4405 10.5668 18.5185 10.3704 18.5185ZM17.7778 12.5926C17.7778 12.789 17.6997 12.9775 17.5608 13.1164C17.4219 13.2553 17.2335 13.3333 17.037 13.3333H15.5556C15.3591 13.3333 15.1707 13.2553 15.0318 13.1164C14.8929 12.9775 14.8148 12.789 14.8148 12.5926V9.62963C14.8148 9.43317 14.8929 9.24476 15.0318 9.10585C15.1707 8.96693 15.3591 8.88889 15.5556 8.88889H17.037C17.2335 8.88889 17.4219 8.96693 17.5608 9.10585C17.6997 9.24476 17.7778 9.43317 17.7778 9.62963V12.5926Z" fill="#343434"/>
</svg>
